<svg width="24" height="24" viewBox="0 0 24 24" fill="none" xmlns="http://www.w3.org/2000/svg">
<path d="M12.7408 18.4036L15.3054 15.8389C15.6481 15.4963 16.1871 15.4486 16.5846 15.7258L20.1353 18.2023C20.6459 18.5584 20.7106 19.2894 20.2704 19.7296L19.8841 20.1159C19.1739 20.8261 18.1547 21.1338 17.1986 20.826C15.1336 20.1613 11.3767 18.6179 8.26174 15.503C5.14677 12.388 3.60339 8.63109 2.93869 6.56614C2.63091 5.60999 2.93858 4.59084 3.64884 3.88058L4.0351 3.49432C4.47527 3.05415 5.20632 3.11879 5.56242 3.62937L8.03887 7.18011C8.31608 7.57758 8.26842 8.11661 7.92576 8.45927L5.36112 11.0239" stroke="#6C6ADE" stroke-linecap="round"/>
</svg>
